The Professionals 1966 1080p BluRay x264-KRM

The Professionals

GENRE: Action | Western
 
http://www.imdb.com/title/tt0060862/


An arrogant Texas millionaire hires four adventurers to rescue his kidnapped wife from a notorious Mexican bandit.


Release info

RELEASE NAME..: The.Professionals.1966.1080p.BluRay.x264-KRM
RELEASE DATE..: 2011-02-19                                            
RELEASE SIZE..: 7.96 GiB                                              
RUNTIME.......: 1h 57mn 
VIDEO CODEC...: x264, 2pass, L4.1                                    
FRAMERATE.....: 23.976 fps                                            
BITRATE.......: 9 053 Kbps                                 
RESOLUTION....: 1920x818
AUDIO ........: Eng AC3 5.1 @ 640 Kbps  
SUBTITLES.....: Hun,Man,Chi,Cze,Fr,Bul,Por
SOURCE........: BluRay 1080p


Cast:
---------------------------------------------------------------------
. Burt Lancaster as Bill Dolworth 
. Lee Marvin as Henry 'Rico' Fardan 
. Robert Ryan as Hans Ehrengard 
. Woody Strode as Jake Sharp 
. Jack Palance as Jesus Raza 
. Claudia Cardinale as Mrs. Maria Grant 
. Ralph Bellamy as Joe Grant 
. Joe De Santis as Ortega 
. Rafael Bertrand as Fierro 
. Jorge Martínez de Hoyos as Eduardo Padilla - Goatkeeper (as Jorge Martinez de Hoyos) 


[img]http://torrent-stats.info/9a53/b8f96c08.png[/img]



Format : Matroska 
File size : 7.96 GiB 
Duration : 1h 57mn 
Overall bit rate : 9 695 Kbps 
Movie name : Kormi a profi 
Encoded date : UTC 2011-02-19 17:47:03 
Writing application : mkvmerge v4.5.0 ('Speed of Light') built on Feb 1 2011 02:10:32 
Writing library : libebml v1.2.0 + libmatroska v1.1.0 

Video 
ID : 1 
Format : AVC 
Format/Info : Advanced Video Codec 
Format profile : High@L4.1 
Format settings, CABAC : Yes 
Format settings, ReFrames : 4 frames 
Muxing mode : Container profile=Unknown@4.1 
Codec ID : V_MPEG4/ISO/AVC 
Duration : 1h 57mn 
Bit rate mode : Variable 
Bit rate : 9 053 Kbps 
Maximum bit rate : 25.0 Mbps 
Width : 1 920 pixels 
Height : 818 pixels 
Display aspect ratio : 2.35:1 
Frame rate : 23.976 fps 
Color space : YUV 
Chroma subsampling : 4:2:0 
Bit depth : 8 bits 
Scan type : Progressive 
Bits/(Pixel*Frame) : 0.240 
Stream size : 7.27 GiB (91%) 
Writing library : x264 core 114 r1900 60ef1f8 
Encoding settings : cabac=1 / ref=4 / deblock=1:-3:-3 / analyse=0x3:0x133 / me=tesa / subme=10 / psy=1 / psy_rd=1.00:0.00 / mixed_ref=1 / me_range=16 / chroma_me=1 / trellis=2 / 8x8dct=1 / cqm=0 / deadzone=21,11 / fast_pskip=1 / chroma_qp_offset=-2 / threads=6 / sliced_threads=0 / nr=0 / decimate=1 / interlaced=0 / constrained_intra=0 / bframes=6 / b_pyramid=0 / b_adapt=2 / b_bias=0 / direct=1 / weightb=1 / open_gop=0 / weightp=2 / keyint=240 / keyint_min=24 / scenecut=40 / intra_refresh=0 / rc_lookahead=40 / rc=2pass / mbtree=1 / bitrate=9053 / ratetol=1.0 / qcomp=0.60 / qpmin=0 / qpmax=69 / qpstep=4 / cplxblur=20.0 / qblur=0.5 / vbv_maxrate=25000 / vbv_bufsize=25000 / nal_hrd=vbr / ip_ratio=1.40 / aq=1:1.00 

Audio 
ID : 2 
Format : AC-3 
Format/Info : Audio Coding 3 
Mode extension : CM (complete main) 
Codec ID : A_AC3 
Duration : 1h 57mn 
Bit rate mode : Constant 
Bit rate : 640 Kbps 
Channel(s) : 6 channels 
Channel positions : Front: L C R, Side: L R, LFE 
Sampling rate : 48.0 KHz 
Bit depth : 16 bits 
Stream size : 538 MiB (7%) 
Language : English 

Text #1 
ID : 3 
Format : UTF-8 
Codec ID : S_TEXT/UTF8 
Codec ID/Info : UTF-8 Plain Text 
Language : Hungarian 

Text #2 
ID : 4 
Format : UTF-8 
Codec ID : S_TEXT/UTF8 
Codec ID/Info : UTF-8 Plain Text 
Language : Czech 

Text #3 
ID : 5 
Format : UTF-8 
Codec ID : S_TEXT/UTF8 
Codec ID/Info : UTF-8 Plain Text 
Language : French 

Text #4 
ID : 6 
Format : UTF-8 
Codec ID : S_TEXT/UTF8 
Codec ID/Info : UTF-8 Plain Text 
Language : Bulgarian 

Text #5 
ID : 7 
Format : UTF-8 
Codec ID : S_TEXT/UTF8 
Codec ID/Info : UTF-8 Plain Text 
Language : Portuguese 

Text #6 
ID : 8 
Format : UTF-8 
Codec ID : S_TEXT/UTF8 
Codec ID/Info : UTF-8 Plain Text 
Language : mdr 

Text #7 
ID : 9 
Format : UTF-8 
Codec ID : S_TEXT/UTF8 
Codec ID/Info : UTF-8 Plain Text 
Language : Chinese 
 
http://www.imagebam.com/image/631b18120718021 
http://www.imagebam.com/image/219a1d120718032 
http://www.imagebam.com/image/990951120718061 
http://www.imagebam.com/image/39bdde120718075 
http://www.imagebam.com/image/4e1bd2120718091 
http://www.imagebam.com/image/967777120718217